<svg xmlns="http://www.w3.org/2000/svg" viewBox="0 0 800 500" preserveAspectRatio="xMidYMid slice" role="presentation" aria-hidden="true">
<rect x="0" y="0" width="800" height="500" fill="#0a0a0a"/>
<line x1="0" y1="0" x2="0" y2="500" stroke="rgba(255,255,255,0.10)" stroke-width="1"/>
<line x1="40" y1="0" x2="40" y2="500" stroke="rgba(255,255,255,0.10)" stroke-width="1"/>
<line x1="80" y1="0" x2="80" y2="500" stroke="rgba(255,255,255,0.10)" stroke-width="1"/>
<line x1="120" y1="0" x2="120" y2="500" stroke="rgba(255,255,255,0.10)" stroke-width="1"/>
<line x1="160" y1="0" x2="160" y2="500" stroke="rgba(255,255,255,0.10)" stroke-width="1"/>
<line x1="200" y1="0" x2="200" y2="500" stroke="rgba(255,255,255,0.10)" stroke-width="1"/>
<line x1="240" y1="0" x2="240" y2="500" stroke="rgba(255,255,255,0.10)" stroke-width="1"/>
<line x1="280" y1="0" x2="280" y2="500" stroke="rgba(255,255,255,0.10)" stroke-width="1"/>
<line x1="320" y1="0" x2="320" y2="500" stroke="rgba(255,255,255,0.10)" stroke-width="1"/>
<line x1="360" y1="0" x2="360" y2="500" stroke="rgba(255,255,255,0.10)" stroke-width="1"/>
<line x1="400" y1="0" x2="400" y2="500" stroke="rgba(255,255,255,0.10)" stroke-width="1"/>
<line x1="440" y1="0" x2="440" y2="500" stroke="rgba(255,255,255,0.10)" stroke-width="1"/>
<line x1="480" y1="0" x2="480" y2="500" stroke="rgba(255,255,255,0.10)" stroke-width="1"/>
<line x1="520" y1="0" x2="520" y2="500" stroke="rgba(255,255,255,0.10)" stroke-width="1"/>
<line x1="560" y1="0" x2="560" y2="500" stroke="rgba(255,255,255,0.10)" stroke-width="1"/>
<line x1="600" y1="0" x2="600" y2="500" stroke="rgba(255,255,255,0.10)" stroke-width="1"/>
<line x1="640" y1="0" x2="640" y2="500" stroke="rgba(255,255,255,0.10)" stroke-width="1"/>
<line x1="680" y1="0" x2="680" y2="500" stroke="rgba(255,255,255,0.10)" stroke-width="1"/>
<line x1="720" y1="0" x2="720" y2="500" stroke="rgba(255,255,255,0.10)" stroke-width="1"/>
<line x1="760" y1="0" x2="760" y2="500" stroke="rgba(255,255,255,0.10)" stroke-width="1"/>
<line x1="800" y1="0" x2="800" y2="500" stroke="rgba(255,255,255,0.10)" stroke-width="1"/>
<line x1="0" y1="0" x2="800" y2="0" stroke="rgba(255,255,255,0.10)" stroke-width="1"/>
<line x1="0" y1="40" x2="800" y2="40" stroke="rgba(255,255,255,0.10)" stroke-width="1"/>
<line x1="0" y1="80" x2="800" y2="80" stroke="rgba(255,255,255,0.10)" stroke-width="1"/>
<line x1="0" y1="120" x2="800" y2="120" stroke="rgba(255,255,255,0.10)" stroke-width="1"/>
<line x1="0" y1="160" x2="800" y2="160" stroke="rgba(255,255,255,0.10)" stroke-width="1"/>
<line x1="0" y1="200" x2="800" y2="200" stroke="rgba(255,255,255,0.10)" stroke-width="1"/>
<line x1="0" y1="240" x2="800" y2="240" stroke="rgba(255,255,255,0.10)" stroke-width="1"/>
<line x1="0" y1="280" x2="800" y2="280" stroke="rgba(255,255,255,0.10)" stroke-width="1"/>
<line x1="0" y1="320" x2="800" y2="320" stroke="rgba(255,255,255,0.10)" stroke-width="1"/>
<line x1="0" y1="360" x2="800" y2="360" stroke="rgba(255,255,255,0.10)" stroke-width="1"/>
<line x1="0" y1="400" x2="800" y2="400" stroke="rgba(255,255,255,0.10)" stroke-width="1"/>
<line x1="0" y1="440" x2="800" y2="440" stroke="rgba(255,255,255,0.10)" stroke-width="1"/>
<line x1="0" y1="480" x2="800" y2="480" stroke="rgba(255,255,255,0.10)" stroke-width="1"/>
<line x1="30" y1="60" x2="770" y2="60" stroke="rgba(255,255,255,0.10)" stroke-width="1"/>
<line x1="30" y1="440" x2="770" y2="440" stroke="rgba(255,255,255,0.10)" stroke-width="1"/>
<g fill="none" stroke="rgba(255,255,255,0.30)" stroke-width="1"><rect x="70" y="90" width="34" height="44" rx="2.5"/><rect x="140" y="90" width="34" height="44" rx="2.5"/><rect x="178" y="90" width="34" height="44" rx="2.5"/><rect x="248" y="90" width="34" height="44" rx="2.5"/><rect x="70" y="148" width="34" height="44" rx="2.5"/><rect x="140" y="148" width="34" height="44" rx="2.5"/><rect x="178" y="148" width="34" height="44" rx="2.5"/><rect x="248" y="148" width="34" height="44" rx="2.5"/><rect x="70" y="206" width="34" height="44" rx="2.5"/><rect x="140" y="206" width="34" height="44" rx="2.5"/><rect x="178" y="206" width="34" height="44" rx="2.5"/><rect x="248" y="206" width="34" height="44" rx="2.5"/><rect x="70" y="264" width="34" height="44" rx="2.5"/><rect x="140" y="264" width="34" height="44" rx="2.5"/><rect x="178" y="264" width="34" height="44" rx="2.5"/><rect x="248" y="264" width="34" height="44" rx="2.5"/><rect x="332" y="90" width="28" height="34" rx="2.5"/><rect x="364" y="90" width="28" height="34" rx="2.5"/><rect x="414" y="90" width="28" height="34" rx="2.5"/><rect x="446" y="90" width="28" height="34" rx="2.5"/><rect x="478" y="90" width="28" height="34" rx="2.5"/><rect x="528" y="90" width="28" height="34" rx="2.5"/><rect x="560" y="90" width="28" height="34" rx="2.5"/><rect x="332" y="132" width="28" height="34" rx="2.5"/><rect x="364" y="132" width="28" height="34" rx="2.5"/><rect x="414" y="132" width="28" height="34" rx="2.5"/><rect x="446" y="132" width="28" height="34" rx="2.5"/><rect x="478" y="132" width="28" height="34" rx="2.5"/><rect x="528" y="132" width="28" height="34" rx="2.5"/><rect x="560" y="132" width="28" height="34" rx="2.5"/><rect x="332" y="174" width="28" height="34" rx="2.5"/><rect x="364" y="174" width="28" height="34" rx="2.5"/><rect x="414" y="174" width="28" height="34" rx="2.5"/><rect x="446" y="174" width="28" height="34" rx="2.5"/><rect x="478" y="174" width="28" height="34" rx="2.5"/><rect x="528" y="174" width="28" height="34" rx="2.5"/><rect x="560" y="174" width="28" height="34" rx="2.5"/><rect x="638" y="100" width="22" height="26" rx="2.5"/><rect x="662" y="100" width="22" height="26" rx="2.5"/><rect x="686" y="100" width="22" height="26" rx="2.5"/><rect x="720" y="100" width="22" height="26" rx="2.5"/><rect x="744" y="100" width="22" height="26" rx="2.5"/><rect x="768" y="100" width="22" height="26" rx="2.5"/><rect x="792" y="100" width="22" height="26" rx="2.5"/><rect x="826" y="100" width="22" height="26" rx="2.5"/><rect x="850" y="100" width="22" height="26" rx="2.5"/><rect x="874" y="100" width="22" height="26" rx="2.5"/><rect x="638" y="130" width="22" height="26" rx="2.5"/><rect x="662" y="130" width="22" height="26" rx="2.5"/><rect x="686" y="130" width="22" height="26" rx="2.5"/><rect x="720" y="130" width="22" height="26" rx="2.5"/><rect x="744" y="130" width="22" height="26" rx="2.5"/><rect x="768" y="130" width="22" height="26" rx="2.5"/><rect x="792" y="130" width="22" height="26" rx="2.5"/><rect x="826" y="130" width="22" height="26" rx="2.5"/><rect x="850" y="130" width="22" height="26" rx="2.5"/><rect x="874" y="130" width="22" height="26" rx="2.5"/><rect x="638" y="160" width="22" height="26" rx="2.5"/><rect x="662" y="160" width="22" height="26" rx="2.5"/><rect x="686" y="160" width="22" height="26" rx="2.5"/><rect x="720" y="160" width="22" height="26" rx="2.5"/><rect x="744" y="160" width="22" height="26" rx="2.5"/><rect x="768" y="160" width="22" height="26" rx="2.5"/><rect x="792" y="160" width="22" height="26" rx="2.5"/><rect x="826" y="160" width="22" height="26" rx="2.5"/><rect x="850" y="160" width="22" height="26" rx="2.5"/><rect x="874" y="160" width="22" height="26" rx="2.5"/><rect x="638" y="190" width="22" height="26" rx="2.5"/><rect x="662" y="190" width="22" height="26" rx="2.5"/><rect x="686" y="190" width="22" height="26" rx="2.5"/><rect x="720" y="190" width="22" height="26" rx="2.5"/><rect x="744" y="190" width="22" height="26" rx="2.5"/><rect x="768" y="190" width="22" height="26" rx="2.5"/><rect x="792" y="190" width="22" height="26" rx="2.5"/><rect x="826" y="190" width="22" height="26" rx="2.5"/><rect x="850" y="190" width="22" height="26" rx="2.5"/><rect x="874" y="190" width="22" height="26" rx="2.5"/><rect x="638" y="220" width="22" height="26" rx="2.5"/><rect x="662" y="220" width="22" height="26" rx="2.5"/><rect x="686" y="220" width="22" height="26" rx="2.5"/><rect x="720" y="220" width="22" height="26" rx="2.5"/><rect x="744" y="220" width="22" height="26" rx="2.5"/><rect x="768" y="220" width="22" height="26" rx="2.5"/><rect x="792" y="220" width="22" height="26" rx="2.5"/><rect x="826" y="220" width="22" height="26" rx="2.5"/><rect x="850" y="220" width="22" height="26" rx="2.5"/><rect x="874" y="220" width="22" height="26" rx="2.5"/><rect x="638" y="250" width="22" height="26" rx="2.5"/><rect x="662" y="250" width="22" height="26" rx="2.5"/><rect x="686" y="250" width="22" height="26" rx="2.5"/><rect x="720" y="250" width="22" height="26" rx="2.5"/><rect x="744" y="250" width="22" height="26" rx="2.5"/><rect x="768" y="250" width="22" height="26" rx="2.5"/><rect x="792" y="250" width="22" height="26" rx="2.5"/><rect x="826" y="250" width="22" height="26" rx="2.5"/><rect x="850" y="250" width="22" height="26" rx="2.5"/><rect x="874" y="250" width="22" height="26" rx="2.5"/><rect x="638" y="280" width="22" height="26" rx="2.5"/><rect x="662" y="280" width="22" height="26" rx="2.5"/><rect x="686" y="280" width="22" height="26" rx="2.5"/><rect x="720" y="280" width="22" height="26" rx="2.5"/><rect x="744" y="280" width="22" height="26" rx="2.5"/><rect x="768" y="280" width="22" height="26" rx="2.5"/><rect x="792" y="280" width="22" height="26" rx="2.5"/><rect x="826" y="280" width="22" height="26" rx="2.5"/><rect x="850" y="280" width="22" height="26" rx="2.5"/><rect x="874" y="280" width="22" height="26" rx="2.5"/><rect x="638" y="310" width="22" height="26" rx="2.5"/><rect x="662" y="310" width="22" height="26" rx="2.5"/><rect x="686" y="310" width="22" height="26" rx="2.5"/><rect x="720" y="310" width="22" height="26" rx="2.5"/><rect x="744" y="310" width="22" height="26" rx="2.5"/><rect x="768" y="310" width="22" height="26" rx="2.5"/><rect x="792" y="310" width="22" height="26" rx="2.5"/><rect x="826" y="310" width="22" height="26" rx="2.5"/><rect x="850" y="310" width="22" height="26" rx="2.5"/><rect x="874" y="310" width="22" height="26" rx="2.5"/><rect x="638" y="340" width="22" height="26" rx="2.5"/><rect x="662" y="340" width="22" height="26" rx="2.5"/><rect x="686" y="340" width="22" height="26" rx="2.5"/><rect x="720" y="340" width="22" height="26" rx="2.5"/><rect x="744" y="340" width="22" height="26" rx="2.5"/><rect x="768" y="340" width="22" height="26" rx="2.5"/><rect x="792" y="340" width="22" height="26" rx="2.5"/><rect x="826" y="340" width="22" height="26" rx="2.5"/><rect x="850" y="340" width="22" height="26" rx="2.5"/><rect x="874" y="340" width="22" height="26" rx="2.5"/><rect x="638" y="370" width="22" height="26" rx="2.5"/><rect x="662" y="370" width="22" height="26" rx="2.5"/><rect x="686" y="370" width="22" height="26" rx="2.5"/><rect x="720" y="370" width="22" height="26" rx="2.5"/><rect x="744" y="370" width="22" height="26" rx="2.5"/><rect x="768" y="370" width="22" height="26" rx="2.5"/><rect x="792" y="370" width="22" height="26" rx="2.5"/><rect x="826" y="370" width="22" height="26" rx="2.5"/><rect x="850" y="370" width="22" height="26" rx="2.5"/><rect x="874" y="370" width="22" height="26" rx="2.5"/></g>
<rect x="60" y="72" width="232" height="254" fill="none" stroke="#dd260b" stroke-width="1.5"/>
<text x="176" y="66" font-family="monospace" font-size="8" fill="rgba(255,255,255,0.25)" text-anchor="middle">BUSINESS</text>
<text x="460" y="82" font-family="monospace" font-size="8" fill="rgba(255,255,255,0.25)" text-anchor="middle">PREMIUM ECON</text>
<text x="767" y="94" font-family="monospace" font-size="8" fill="rgba(255,255,255,0.25)" text-anchor="middle">ECONOMY</text>
<text x="400" y="462" font-family="monospace" font-size="8" fill="rgba(255,255,255,0.25)" text-anchor="middle">787-9 · CABIN CONFIGURATION</text>
</svg>