<svg xmlns="http://www.w3.org/2000/svg" aria-hidden="true" preserveAspectRatio="xMidYMid slice" role="presentation" viewBox="0 0 800 500"><rect width="800" height="500" x="0" y="0" fill="#0a0a0a"/><line x1="0" x2="0" y1="0" y2="500" stroke="rgba(255,255,255,0.10)" stroke-width="1"/><line x1="40" x2="40" y1="0" y2="500" stroke="rgba(255,255,255,0.10)" stroke-width="1"/><line x1="80" x2="80" y1="0" y2="500" stroke="rgba(255,255,255,0.10)" stroke-width="1"/><line x1="120" x2="120" y1="0" y2="500" stroke="rgba(255,255,255,0.10)" stroke-width="1"/><line x1="160" x2="160" y1="0" y2="500" stroke="rgba(255,255,255,0.10)" stroke-width="1"/><line x1="200" x2="200" y1="0" y2="500" stroke="rgba(255,255,255,0.10)" stroke-width="1"/><line x1="240" x2="240" y1="0" y2="500" stroke="rgba(255,255,255,0.10)" stroke-width="1"/><line x1="280" x2="280" y1="0" y2="500" stroke="rgba(255,255,255,0.10)" stroke-width="1"/><line x1="320" x2="320" y1="0" y2="500" stroke="rgba(255,255,255,0.10)" stroke-width="1"/><line x1="360" x2="360" y1="0" y2="500" stroke="rgba(255,255,255,0.10)" stroke-width="1"/><line x1="400" x2="400" y1="0" y2="500" stroke="rgba(255,255,255,0.10)" stroke-width="1"/><line x1="440" x2="440" y1="0" y2="500" stroke="rgba(255,255,255,0.10)" stroke-width="1"/><line x1="480" x2="480" y1="0" y2="500" stroke="rgba(255,255,255,0.10)" stroke-width="1"/><line x1="520" x2="520" y1="0" y2="500" stroke="rgba(255,255,255,0.10)" stroke-width="1"/><line x1="560" x2="560" y1="0" y2="500" stroke="rgba(255,255,255,0.10)" stroke-width="1"/><line x1="600" x2="600" y1="0" y2="500" stroke="rgba(255,255,255,0.10)" stroke-width="1"/><line x1="640" x2="640" y1="0" y2="500" stroke="rgba(255,255,255,0.10)" stroke-width="1"/><line x1="680" x2="680" y1="0" y2="500" stroke="rgba(255,255,255,0.10)" stroke-width="1"/><line x1="720" x2="720" y1="0" y2="500" stroke="rgba(255,255,255,0.10)" stroke-width="1"/><line x1="760" x2="760" y1="0" y2="500" stroke="rgba(255,255,255,0.10)" stroke-width="1"/><line x1="800" x2="800" y1="0" y2="500" stroke="rgba(255,255,255,0.10)" stroke-width="1"/><line x1="0" x2="800" y1="0" y2="0" stroke="rgba(255,255,255,0.10)" stroke-width="1"/><line x1="0" x2="800" y1="40" y2="40" stroke="rgba(255,255,255,0.10)" stroke-width="1"/><line x1="0" x2="800" y1="80" y2="80" stroke="rgba(255,255,255,0.10)" stroke-width="1"/><line x1="0" x2="800" y1="120" y2="120" stroke="rgba(255,255,255,0.10)" stroke-width="1"/><line x1="0" x2="800" y1="160" y2="160" stroke="rgba(255,255,255,0.10)" stroke-width="1"/><line x1="0" x2="800" y1="200" y2="200" stroke="rgba(255,255,255,0.10)" stroke-width="1"/><line x1="0" x2="800" y1="240" y2="240" stroke="rgba(255,255,255,0.10)" stroke-width="1"/><line x1="0" x2="800" y1="280" y2="280" stroke="rgba(255,255,255,0.10)" stroke-width="1"/><line x1="0" x2="800" y1="320" y2="320" stroke="rgba(255,255,255,0.10)" stroke-width="1"/><line x1="0" x2="800" y1="360" y2="360" stroke="rgba(255,255,255,0.10)" stroke-width="1"/><line x1="0" x2="800" y1="400" y2="400" stroke="rgba(255,255,255,0.10)" stroke-width="1"/><line x1="0" x2="800" y1="440" y2="440" stroke="rgba(255,255,255,0.10)" stroke-width="1"/><line x1="0" x2="800" y1="480" y2="480" stroke="rgba(255,255,255,0.10)" stroke-width="1"/><circle cx="134.3" cy="163.8" r="2.6" fill="none" stroke="rgba(255,255,255,0.40)" stroke-width="1"/><circle cx="137.2" cy="131.3" r="2.6" fill="none" stroke="rgba(255,255,255,0.40)" stroke-width="1"/><circle cx="187.9" cy="133.6" r="2.6" fill="none" stroke="rgba(255,255,255,0.40)" stroke-width="1"/><circle cx="134.7" cy="175.4" r="2.6" fill="none" stroke="rgba(255,255,255,0.40)" stroke-width="1"/><circle cx="184.1" cy="139.9" r="2.6" fill="none" stroke="rgba(255,255,255,0.40)" stroke-width="1"/><circle cx="117.5" cy="159.4" r="2.6" fill="none" stroke="rgba(255,255,255,0.40)" stroke-width="1"/><circle cx="160.4" cy="115.1" r="2.6" fill="none" stroke="rgba(255,255,255,0.40)" stroke-width="1"/><circle cx="158.8" cy="127.5" r="2.6" fill="none" stroke="rgba(255,255,255,0.40)" stroke-width="1"/><circle cx="135.9" cy="117.1" r="2.6" fill="none" stroke="rgba(255,255,255,0.40)" stroke-width="1"/><circle cx="147.7" cy="142.7" r="2.6" fill="none" stroke="rgba(255,255,255,0.40)" stroke-width="1"/><polygon fill="none" stroke="rgba(255,255,255,0.30)" stroke-width="1" points="117.5 159.4 135.9 117.1 160.4 115.1 187.9 133.6 184.1 139.9 134.7 175.4" opacity=".6"/><circle cx="150" cy="130" r="2" fill="rgba(255,255,255,0.30)" opacity=".8"/><circle cx="296.3" cy="84.1" r="2.6" fill="none" stroke="rgba(255,255,255,0.40)" stroke-width="1"/><circle cx="364.5" cy="76.5" r="2.6" fill="none" stroke="rgba(255,255,255,0.40)" stroke-width="1"/><circle cx="365.3" cy="126.1" r="2.6" fill="none" stroke="rgba(255,255,255,0.40)" stroke-width="1"/><circle cx="313.1" cy="86.3" r="2.6" fill="none" stroke="rgba(255,255,255,0.40)" stroke-width="1"/><circle cx="344.9" cy="133" r="2.6" fill="none" stroke="rgba(255,255,255,0.40)" stroke-width="1"/><circle cx="380.3" cy="133.7" r="2.6" fill="none" stroke="rgba(255,255,255,0.40)" stroke-width="1"/><circle cx="355.3" cy="88.6" r="2.6" fill="none" stroke="rgba(255,255,255,0.40)" stroke-width="1"/><circle cx="312" cy="151.3" r="2.6" fill="none" stroke="rgba(255,255,255,0.40)" stroke-width="1"/><circle cx="279.2" cy="91.4" r="2.6" fill="none" stroke="rgba(255,255,255,0.40)" stroke-width="1"/><circle cx="350.8" cy="88" r="2.6" fill="none" stroke="rgba(255,255,255,0.40)" stroke-width="1"/><circle cx="294.9" cy="125.8" r="2.6" fill="none" stroke="rgba(255,255,255,0.40)" stroke-width="1"/><polygon fill="none" stroke="rgba(255,255,255,0.30)" stroke-width="1" points="279.2 91.4 296.3 84.1 364.5 76.5 380.3 133.7 312 151.3 294.9 125.8" opacity=".6"/><circle cx="330" cy="110" r="2" fill="rgba(255,255,255,0.30)" opacity=".8"/><circle cx="500.1" cy="154.7" r="2.6" fill="none" stroke="rgba(255,255,255,0.40)" stroke-width="1"/><circle cx="516.9" cy="188.8" r="2.6" fill="none" stroke="rgba(255,255,255,0.40)" stroke-width="1"/><circle cx="549.2" cy="162.2" r="2.6" fill="none" stroke="rgba(255,255,255,0.40)" stroke-width="1"/><circle cx="556.5" cy="149.6" r="2.6" fill="none" stroke="rgba(255,255,255,0.40)" stroke-width="1"/><circle cx="492.2" cy="122" r="2.6" fill="none" stroke="rgba(255,255,255,0.40)" stroke-width="1"/><circle cx="547.6" cy="176.7" r="2.6" fill="none" stroke="rgba(255,255,255,0.40)" stroke-width="1"/><circle cx="573.2" cy="167.7" r="2.6" fill="none" stroke="rgba(255,255,255,0.40)" stroke-width="1"/><circle cx="498.7" cy="131.8" r="2.6" fill="none" stroke="rgba(255,255,255,0.40)" stroke-width="1"/><circle cx="532.9" cy="171.9" r="2.6" fill="none" stroke="rgba(255,255,255,0.40)" stroke-width="1"/><circle cx="483.6" cy="133" r="2.6" fill="none" stroke="rgba(255,255,255,0.40)" stroke-width="1"/><circle cx="528.2" cy="168.3" r="2.6" fill="none" stroke="rgba(255,255,255,0.40)" stroke-width="1"/><circle cx="545" cy="120.2" r="2.6" fill="none" stroke="rgba(255,255,255,0.40)" stroke-width="1"/><polygon fill="none" stroke="#dd260b" stroke-width="1.5" points="483.6 133 492.2 122 545 120.2 573.2 167.7 516.9 188.8" opacity=".9"/><circle cx="520" cy="150" r="2" fill="#dd260b" opacity=".8"/><circle cx="654" cy="248.8" r="2.6" fill="none" stroke="rgba(255,255,255,0.40)" stroke-width="1"/><circle cx="652.1" cy="299.6" r="2.6" fill="none" stroke="rgba(255,255,255,0.40)" stroke-width="1"/><circle cx="664.6" cy="302.4" r="2.6" fill="none" stroke="rgba(255,255,255,0.40)" stroke-width="1"/><circle cx="694.7" cy="289.2" r="2.6" fill="none" stroke="rgba(255,255,255,0.40)" stroke-width="1"/><circle cx="698" cy="252.4" r="2.6" fill="none" stroke="rgba(255,255,255,0.40)" stroke-width="1"/><circle cx="644.2" cy="234.6" r="2.6" fill="none" stroke="rgba(255,255,255,0.40)" stroke-width="1"/><circle cx="673.7" cy="282" r="2.6" fill="none" stroke="rgba(255,255,255,0.40)" stroke-width="1"/><circle cx="699.5" cy="271.9" r="2.6" fill="none" stroke="rgba(255,255,255,0.40)" stroke-width="1"/><circle cx="599.4" cy="304" r="2.6" fill="none" stroke="rgba(255,255,255,0.40)" stroke-width="1"/><circle cx="611.5" cy="252.7" r="2.6" fill="none" stroke="rgba(255,255,255,0.40)" stroke-width="1"/><circle cx="645" cy="293.4" r="2.6" fill="none" stroke="rgba(255,255,255,0.40)" stroke-width="1"/><polygon fill="none" stroke="rgba(255,255,255,0.30)" stroke-width="1" points="599.4 304 611.5 252.7 644.2 234.6 698 252.4 699.5 271.9 694.7 289.2 664.6 302.4" opacity=".6"/><circle cx="650" cy="280" r="2" fill="rgba(255,255,255,0.30)" opacity=".8"/><circle cx="424.3" cy="375.7" r="2.6" fill="none" stroke="rgba(255,255,255,0.40)" stroke-width="1"/><circle cx="416.4" cy="352.7" r="2.6" fill="none" stroke="rgba(255,255,255,0.40)" stroke-width="1"/><circle cx="404.9" cy="350.7" r="2.6" fill="none" stroke="rgba(255,255,255,0.40)" stroke-width="1"/><circle cx="403" cy="365.9" r="2.6" fill="none" stroke="rgba(255,255,255,0.40)" stroke-width="1"/><circle cx="451" cy="315.6" r="2.6" fill="none" stroke="rgba(255,255,255,0.40)" stroke-width="1"/><circle cx="401" cy="349.5" r="2.6" fill="none" stroke="rgba(255,255,255,0.40)" stroke-width="1"/><circle cx="445.5" cy="402.2" r="2.6" fill="none" stroke="rgba(255,255,255,0.40)" stroke-width="1"/><circle cx="438.6" cy="365.6" r="2.6" fill="none" stroke="rgba(255,255,255,0.40)" stroke-width="1"/><circle cx="426.7" cy="329.5" r="2.6" fill="none" stroke="rgba(255,255,255,0.40)" stroke-width="1"/><circle cx="470.7" cy="354.3" r="2.6" fill="none" stroke="rgba(255,255,255,0.40)" stroke-width="1"/><circle cx="391.6" cy="351.4" r="2.6" fill="none" stroke="rgba(255,255,255,0.40)" stroke-width="1"/><circle cx="425.7" cy="366.7" r="2.6" fill="none" stroke="rgba(255,255,255,0.40)" stroke-width="1"/><polygon fill="none" stroke="rgba(255,255,255,0.30)" stroke-width="1" points="391.6 351.4 426.7 329.5 451 315.6 470.7 354.3 445.5 402.2 403 365.9" opacity=".6"/><circle cx="430" cy="360" r="2" fill="rgba(255,255,255,0.30)" opacity=".8"/><circle cx="173.3" cy="385.4" r="2.6" fill="none" stroke="rgba(255,255,255,0.40)" stroke-width="1"/><circle cx="179" cy="328.4" r="2.6" fill="none" stroke="rgba(255,255,255,0.40)" stroke-width="1"/><circle cx="199.6" cy="363" r="2.6" fill="none" stroke="rgba(255,255,255,0.40)" stroke-width="1"/><circle cx="170" cy="340.8" r="2.6" fill="none" stroke="rgba(255,255,255,0.40)" stroke-width="1"/><circle cx="149.1" cy="351.4" r="2.6" fill="none" stroke="rgba(255,255,255,0.40)" stroke-width="1"/><circle cx="172.1" cy="346.5" r="2.6" fill="none" stroke="rgba(255,255,255,0.40)" stroke-width="1"/><circle cx="193.8" cy="346.9" r="2.6" fill="none" stroke="rgba(255,255,255,0.40)" stroke-width="1"/><circle cx="189.2" cy="367.7" r="2.6" fill="none" stroke="rgba(255,255,255,0.40)" stroke-width="1"/><circle cx="194.3" cy="317" r="2.6" fill="none" stroke="rgba(255,255,255,0.40)" stroke-width="1"/><circle cx="188.1" cy="359.4" r="2.6" fill="none" stroke="rgba(255,255,255,0.40)" stroke-width="1"/><circle cx="209.6" cy="328" r="2.6" fill="none" stroke="rgba(255,255,255,0.40)" stroke-width="1"/><circle cx="219.2" cy="359.8" r="2.6" fill="none" stroke="rgba(255,255,255,0.40)" stroke-width="1"/><circle cx="232.7" cy="332.4" r="2.6" fill="none" stroke="rgba(255,255,255,0.40)" stroke-width="1"/><polygon fill="none" stroke="rgba(255,255,255,0.30)" stroke-width="1" points="149.1 351.4 179 328.4 194.3 317 232.7 332.4 219.2 359.8 173.3 385.4" opacity=".6"/><circle cx="190" cy="340" r="2" fill="rgba(255,255,255,0.30)" opacity=".8"/><text x="400" y="470" fill="rgba(255,255,255,0.25)" font-family="monospace" font-size="8" text-anchor="middle">384 STORES · 6 CLIMATE ZONES</text></svg>