<svg xmlns="http://www.w3.org/2000/svg" aria-hidden="true" preserveAspectRatio="xMidYMid slice" role="presentation" viewBox="0 0 800 500"><rect width="800" height="500" x="0" y="0" fill="#f2f2f3"/><line x1="0" x2="0" y1="0" y2="500" stroke="rgba(0,0,0,0.12)" stroke-width="1"/><line x1="40" x2="40" y1="0" y2="500" stroke="rgba(0,0,0,0.12)" stroke-width="1"/><line x1="80" x2="80" y1="0" y2="500" stroke="rgba(0,0,0,0.12)" stroke-width="1"/><line x1="120" x2="120" y1="0" y2="500" stroke="rgba(0,0,0,0.12)" stroke-width="1"/><line x1="160" x2="160" y1="0" y2="500" stroke="rgba(0,0,0,0.12)" stroke-width="1"/><line x1="200" x2="200" y1="0" y2="500" stroke="rgba(0,0,0,0.12)" stroke-width="1"/><line x1="240" x2="240" y1="0" y2="500" stroke="rgba(0,0,0,0.12)" stroke-width="1"/><line x1="280" x2="280" y1="0" y2="500" stroke="rgba(0,0,0,0.12)" stroke-width="1"/><line x1="320" x2="320" y1="0" y2="500" stroke="rgba(0,0,0,0.12)" stroke-width="1"/><line x1="360" x2="360" y1="0" y2="500" stroke="rgba(0,0,0,0.12)" stroke-width="1"/><line x1="400" x2="400" y1="0" y2="500" stroke="rgba(0,0,0,0.12)" stroke-width="1"/><line x1="440" x2="440" y1="0" y2="500" stroke="rgba(0,0,0,0.12)" stroke-width="1"/><line x1="480" x2="480" y1="0" y2="500" stroke="rgba(0,0,0,0.12)" stroke-width="1"/><line x1="520" x2="520" y1="0" y2="500" stroke="rgba(0,0,0,0.12)" stroke-width="1"/><line x1="560" x2="560" y1="0" y2="500" stroke="rgba(0,0,0,0.12)" stroke-width="1"/><line x1="600" x2="600" y1="0" y2="500" stroke="rgba(0,0,0,0.12)" stroke-width="1"/><line x1="640" x2="640" y1="0" y2="500" stroke="rgba(0,0,0,0.12)" stroke-width="1"/><line x1="680" x2="680" y1="0" y2="500" stroke="rgba(0,0,0,0.12)" stroke-width="1"/><line x1="720" x2="720" y1="0" y2="500" stroke="rgba(0,0,0,0.12)" stroke-width="1"/><line x1="760" x2="760" y1="0" y2="500" stroke="rgba(0,0,0,0.12)" stroke-width="1"/><line x1="800" x2="800" y1="0" y2="500" stroke="rgba(0,0,0,0.12)" stroke-width="1"/><line x1="0" x2="800" y1="0" y2="0" stroke="rgba(0,0,0,0.12)" stroke-width="1"/><line x1="0" x2="800" y1="40" y2="40" stroke="rgba(0,0,0,0.12)" stroke-width="1"/><line x1="0" x2="800" y1="80" y2="80" stroke="rgba(0,0,0,0.12)" stroke-width="1"/><line x1="0" x2="800" y1="120" y2="120" stroke="rgba(0,0,0,0.12)" stroke-width="1"/><line x1="0" x2="800" y1="160" y2="160" stroke="rgba(0,0,0,0.12)" stroke-width="1"/><line x1="0" x2="800" y1="200" y2="200" stroke="rgba(0,0,0,0.12)" stroke-width="1"/><line x1="0" x2="800" y1="240" y2="240" stroke="rgba(0,0,0,0.12)" stroke-width="1"/><line x1="0" x2="800" y1="280" y2="280" stroke="rgba(0,0,0,0.12)" stroke-width="1"/><line x1="0" x2="800" y1="320" y2="320" stroke="rgba(0,0,0,0.12)" stroke-width="1"/><line x1="0" x2="800" y1="360" y2="360" stroke="rgba(0,0,0,0.12)" stroke-width="1"/><line x1="0" x2="800" y1="400" y2="400" stroke="rgba(0,0,0,0.12)" stroke-width="1"/><line x1="0" x2="800" y1="440" y2="440" stroke="rgba(0,0,0,0.12)" stroke-width="1"/><line x1="0" x2="800" y1="480" y2="480" stroke="rgba(0,0,0,0.12)" stroke-width="1"/><g><rect width="38" height="22" x="90" y="190" fill="hsl(0,20%,76%)"/><rect width="38" height="22" x="130" y="190" fill="hsl(25,20%,76%)"/><rect width="38" height="22" x="170" y="190" fill="hsl(45,20%,76%)"/><rect width="38" height="22" x="210" y="190" fill="hsl(90,20%,76%)"/><rect width="38" height="22" x="250" y="190" fill="hsl(160,20%,76%)"/><rect width="38" height="22" x="290" y="190" fill="hsl(200,20%,76%)"/><rect width="38" height="22" x="330" y="190" fill="hsl(230,20%,76%)"/><rect width="38" height="22" x="370" y="190" fill="hsl(270,20%,76%)"/><rect width="38" height="22" x="90" y="214" fill="hsl(0,20%,64%)"/><rect width="38" height="22" x="130" y="214" fill="hsl(25,20%,64%)"/><rect width="38" height="22" x="170" y="214" fill="hsl(45,20%,64%)"/><rect width="38" height="22" x="210" y="214" fill="hsl(90,20%,64%)"/><rect width="38" height="22" x="250" y="214" fill="hsl(160,20%,64%)"/><rect width="38" height="22" x="290" y="214" fill="hsl(200,20%,64%)"/><rect width="38" height="22" x="330" y="214" fill="hsl(230,20%,64%)"/><rect width="38" height="22" x="370" y="214" fill="hsl(270,20%,64%)"/><rect width="38" height="22" x="90" y="238" fill="hsl(0,20%,52%)"/><rect width="38" height="22" x="130" y="238" fill="hsl(25,20%,52%)"/><rect width="38" height="22" x="170" y="238" fill="hsl(45,20%,52%)"/><rect width="38" height="22" x="210" y="238" fill="hsl(90,20%,52%)"/><rect width="38" height="22" x="250" y="238" fill="hsl(160,20%,52%)"/><rect width="38" height="22" x="290" y="238" fill="hsl(200,20%,52%)"/><rect width="38" height="22" x="330" y="238" fill="hsl(230,20%,52%)"/><rect width="38" height="22" x="370" y="238" fill="hsl(270,20%,52%)"/><rect width="38" height="22" x="90" y="262" fill="hsl(0,20%,40%)"/><rect width="38" height="22" x="130" y="262" fill="hsl(25,20%,40%)"/><rect width="38" height="22" x="170" y="262" fill="hsl(45,20%,40%)"/><rect width="38" height="22" x="210" y="262" fill="hsl(90,20%,40%)"/><rect width="38" height="22" x="250" y="262" fill="hsl(160,20%,40%)"/><rect width="38" height="22" x="290" y="262" fill="hsl(200,20%,40%)"/><rect width="38" height="22" x="330" y="262" fill="hsl(230,20%,40%)"/><rect width="38" height="22" x="370" y="262" fill="hsl(270,20%,40%)"/><rect width="38" height="22" x="90" y="286" fill="hsl(0,20%,28%)"/><rect width="38" height="22" x="130" y="286" fill="hsl(25,20%,28%)"/><rect width="38" height="22" x="170" y="286" fill="hsl(45,20%,28%)"/><rect width="38" height="22" x="210" y="286" fill="hsl(90,20%,28%)"/><rect width="38" height="22" x="250" y="286" fill="hsl(160,20%,28%)"/><rect width="38" height="22" x="290" y="286" fill="hsl(200,20%,28%)"/><rect width="38" height="22" x="330" y="286" fill="hsl(230,20%,28%)"/><rect width="38" height="22" x="370" y="286" fill="hsl(270,20%,28%)"/></g><rect width="324" height="124" x="88" y="188" fill="none" stroke="rgba(0,0,0,0.38)" stroke-width="1.5"/><line x1="109" x2="109" y1="312" y2="317" stroke="rgba(0,0,0,0.30)" stroke-width="1"/><line x1="189" x2="189" y1="312" y2="317" stroke="rgba(0,0,0,0.30)" stroke-width="1"/><line x1="269" x2="269" y1="312" y2="317" stroke="rgba(0,0,0,0.30)" stroke-width="1"/><line x1="349" x2="349" y1="312" y2="317" stroke="rgba(0,0,0,0.30)" stroke-width="1"/><line x1="83" x2="88" y1="190" y2="190" stroke="rgba(0,0,0,0.30)" stroke-width="1"/><line x1="83" x2="88" y1="214" y2="214" stroke="rgba(0,0,0,0.30)" stroke-width="1"/><line x1="83" x2="88" y1="238" y2="238" stroke="rgba(0,0,0,0.30)" stroke-width="1"/><line x1="83" x2="88" y1="262" y2="262" stroke="rgba(0,0,0,0.30)" stroke-width="1"/><line x1="83" x2="88" y1="286" y2="286" stroke="rgba(0,0,0,0.30)" stroke-width="1"/><line x1="83" x2="88" y1="310" y2="310" stroke="rgba(0,0,0,0.30)" stroke-width="1"/><polyline fill="none" stroke="rgba(0,0,0,0.22)" stroke-width="1" points="470 238.1 474.9 238 479.8 237.8 484.7 237.2 489.6 234.1 494.5 234.9 499.5 234.4 504.4 225.3 509.3 219.2 514.2 219.5 519.1 220.8 524 229.2 528.9 238.2 533.8 236.4 538.7 236.8 543.6 243.8 548.5 245.1 553.5 245.5 558.4 242.8 563.3 226.8 568.2 215.5 573.1 218.1 578 219.1 582.9 221.6 587.8 227.6 592.7 225.4 597.6 228.8 602.5 245 607.5 252.3 612.4 250.3 617.3 247 622.2 234.1 627.1 224.3 632 227.9 636.9 225.8 641.8 218 646.7 217.7 651.6 217.7 656.5 222.6 661.5 238.7 666.4 246.6 671.3 243.1 676.2 242.3 681.1 239.7 686 235.6 690.9 237.4 695.8 233.3 700.7 222.6 705.6 219.8 710.5 221.7 715.5 224.5 720.4 231.7 725.3 235.4 730.2 233.3 735.1 234.8 740 237.5"/><line x1="470" x2="740" y1="232" y2="232" stroke="rgba(0,0,0,0.12)" stroke-dasharray="4 3" stroke-width="1"/><line x1="470" x2="470" y1="250" y2="255" stroke="rgba(0,0,0,0.12)" stroke-width="1.5"/><line x1="490.8" x2="490.8" y1="250" y2="259" stroke="rgba(0,0,0,0.12)" stroke-width="1.5"/><line x1="511.5" x2="511.5" y1="250" y2="264" stroke="rgba(0,0,0,0.12)" stroke-width="1.5"/><line x1="532.3" x2="532.3" y1="250" y2="260" stroke="rgba(0,0,0,0.12)" stroke-width="1.5"/><line x1="553.1" x2="553.1" y1="250" y2="268" stroke="rgba(0,0,0,0.12)" stroke-width="1.5"/><line x1="573.8" x2="573.8" y1="250" y2="257" stroke="rgba(0,0,0,0.12)" stroke-width="1.5"/><line x1="594.6" x2="594.6" y1="250" y2="262" stroke="rgba(0,0,0,0.12)" stroke-width="1.5"/><line x1="615.4" x2="615.4" y1="250" y2="270" stroke="rgba(0,0,0,0.12)" stroke-width="1.5"/><line x1="636.2" x2="636.2" y1="250" y2="259" stroke="rgba(0,0,0,0.12)" stroke-width="1.5"/><line x1="656.9" x2="656.9" y1="250" y2="265" stroke="rgba(0,0,0,0.12)" stroke-width="1.5"/><line x1="677.7" x2="677.7" y1="250" y2="256" stroke="rgba(0,0,0,0.12)" stroke-width="1.5"/><line x1="698.5" x2="698.5" y1="250" y2="261" stroke="rgba(0,0,0,0.12)" stroke-width="1.5"/><line x1="719.2" x2="719.2" y1="250" y2="258" stroke="rgba(0,0,0,0.12)" stroke-width="1.5"/><line x1="740" x2="740" y1="250" y2="254" stroke="rgba(0,0,0,0.12)" stroke-width="1.5"/><line x1="80" x2="740" y1="440" y2="440" stroke="rgba(0,0,0,0.38)" stroke-width="1.5"/><line x1="80" x2="80" y1="338" y2="440" stroke="rgba(0,0,0,0.38)" stroke-width="1"/><line x1="80" x2="80" y1="440" y2="445" stroke="rgba(0,0,0,0.30)" stroke-width="1"/><line x1="140" x2="140" y1="440" y2="445" stroke="rgba(0,0,0,0.30)" stroke-width="1"/><line x1="200" x2="200" y1="440" y2="445" stroke="rgba(0,0,0,0.30)" stroke-width="1"/><line x1="260" x2="260" y1="440" y2="445" stroke="rgba(0,0,0,0.30)" stroke-width="1"/><line x1="320" x2="320" y1="440" y2="445" stroke="rgba(0,0,0,0.30)" stroke-width="1"/><line x1="380" x2="380" y1="440" y2="445" stroke="rgba(0,0,0,0.30)" stroke-width="1"/><line x1="440" x2="440" y1="440" y2="445" stroke="rgba(0,0,0,0.30)" stroke-width="1"/><line x1="500" x2="500" y1="440" y2="445" stroke="rgba(0,0,0,0.30)" stroke-width="1"/><line x1="560" x2="560" y1="440" y2="445" stroke="rgba(0,0,0,0.30)" stroke-width="1"/><line x1="620" x2="620" y1="440" y2="445" stroke="rgba(0,0,0,0.30)" stroke-width="1"/><line x1="680" x2="680" y1="440" y2="445" stroke="rgba(0,0,0,0.30)" stroke-width="1"/><line x1="740" x2="740" y1="440" y2="445" stroke="rgba(0,0,0,0.30)" stroke-width="1"/><polyline fill="none" stroke="rgba(0,0,0,0.38)" stroke-width="1.5" points="80 349.5 100 349.3 120 348.9 140 348.5 160 347.8 180 346.8 200 345.6 220 344 240 342 260 339.4 280 336.3 300 332.6 320 328.3 340 323.4 360 317.9 380 312 400 305.8 420 299.5 440 293.4 460 287.5 480 282.3 500 278 520 274.7 540 272.7 560 272 580 272.7 600 274.7 620 278 640 282.3 660 289.9 680 299.5 700 310.3 720 321.9 740 334"/><polyline fill="none" stroke="rgba(0,0,0,0.16)" stroke-width="1" points="80 415.1 94.7 417.5 109.3 412.6 124 411.9 138.7 409.5 153.3 399.3 168 395.5 182.7 404.9 197.3 412.6 212 412.3 226.7 414.6 241.3 417.4 256 409 270.7 397.7 285.3 398.7 300 405.3 314.7 406.5 329.3 409.9 344 418.8 358.7 418.6 373.3 407 388 400.8 402.7 402.8 417.3 401.6 432 401.3 446.7 411.4 461.3 420.4 476 415.7 490.7 408 505.3 406.9 520 403.4 534.7 396.6 549.3 400.7 564 413.2 578.7 417 593.3 413.1 608 413.1 622.7 411.3 637.3 400.7 652 395.2 666.7 403.2 681.3 411 696 411.3 710.7 414.3 725.3 418.5 740 411.1"/><line x1="560" x2="560" y1="272" y2="440" stroke="rgba(0,0,0,0.30)" stroke-dasharray="3 3" stroke-width="1"/><circle cx="560" cy="272" r="3.5" fill="#dd260b"/><text x="568" y="264" fill="rgba(0,0,0,0.30)" font-family="monospace" font-size="8" text-anchor="start">OPTIMUM</text><text x="250" y="332" fill="rgba(0,0,0,0.30)" font-family="monospace" font-size="8" text-anchor="middle">460-620nm . STEPPED</text><text x="400" y="478" fill="rgba(0,0,0,0.30)" font-family="monospace" font-size="8" text-anchor="middle">HUE x BRIGHTNESS x SOUND - SLEEP ONSET</text></svg>