<svg xmlns="http://www.w3.org/2000/svg" viewBox="0 0 800 500" preserveAspectRatio="xMidYMid slice" role="presentation" aria-hidden="true">
<rect x="0" y="0" width="800" height="500" fill="#f2f2f3"/>
<line x1="0" y1="0" x2="0" y2="500" stroke="rgba(0,0,0,0.12)" stroke-width="1"/>
<line x1="100" y1="0" x2="100" y2="500" stroke="rgba(0,0,0,0.12)" stroke-width="1"/>
<line x1="200" y1="0" x2="200" y2="500" stroke="rgba(0,0,0,0.12)" stroke-width="1"/>
<line x1="300" y1="0" x2="300" y2="500" stroke="rgba(0,0,0,0.12)" stroke-width="1"/>
<line x1="400" y1="0" x2="400" y2="500" stroke="rgba(0,0,0,0.12)" stroke-width="1"/>
<line x1="500" y1="0" x2="500" y2="500" stroke="rgba(0,0,0,0.12)" stroke-width="1"/>
<line x1="600" y1="0" x2="600" y2="500" stroke="rgba(0,0,0,0.12)" stroke-width="1"/>
<line x1="700" y1="0" x2="700" y2="500" stroke="rgba(0,0,0,0.12)" stroke-width="1"/>
<line x1="800" y1="0" x2="800" y2="500" stroke="rgba(0,0,0,0.12)" stroke-width="1"/>
<line x1="0" y1="0" x2="800" y2="0" stroke="rgba(0,0,0,0.12)" stroke-width="1"/>
<line x1="0" y1="100" x2="800" y2="100" stroke="rgba(0,0,0,0.12)" stroke-width="1"/>
<line x1="0" y1="200" x2="800" y2="200" stroke="rgba(0,0,0,0.12)" stroke-width="1"/>
<line x1="0" y1="300" x2="800" y2="300" stroke="rgba(0,0,0,0.12)" stroke-width="1"/>
<line x1="0" y1="400" x2="800" y2="400" stroke="rgba(0,0,0,0.12)" stroke-width="1"/>
<line x1="0" y1="500" x2="800" y2="500" stroke="rgba(0,0,0,0.12)" stroke-width="1"/>
<polyline points="215.0,68.0 246.6,71.1 277.0,80.3 305.0,95.3 329.6,115.4 349.7,140.0 364.7,168.0 373.9,198.4 377.0,230.0 373.9,261.6 364.7,292.0 349.7,320.0 329.6,344.6 305.0,364.7 277.0,379.7 246.6,388.9 215.0,392.0" fill="none" stroke="rgba(0,0,0,0.12)" stroke-width="1"/>
<polyline points="215.0,100.0 240.4,102.5 264.7,109.9 287.2,121.9 306.9,138.1 323.1,157.8 335.1,180.3 342.5,204.6 345.0,230.0 342.5,255.4 335.1,279.7 323.1,302.2 306.9,321.9 287.2,338.1 264.7,350.1 240.4,357.5 215.0,360.0" fill="none" stroke="rgba(0,0,0,0.12)" stroke-width="1"/>
<polyline points="215.0,130.0 234.5,131.9 253.3,137.6 270.6,146.9 285.7,159.3 298.1,174.4 307.4,191.7 313.1,210.5 315.0,230.0 313.1,249.5 307.4,268.3 298.1,285.6 285.7,300.7 270.6,313.1 253.3,322.4 234.5,328.1 215.0,330.0" fill="none" stroke="rgba(0,0,0,0.12)" stroke-width="1"/>
<polyline points="215.0,158.0 229.0,159.4 242.6,163.5 255.0,170.1 265.9,179.1 274.9,190.0 281.5,202.4 285.6,216.0 287.0,230.0 285.6,244.0 281.5,257.6 274.9,270.0 265.9,280.9 255.0,289.9 242.6,296.5 229.0,300.6 215.0,302.0" fill="none" stroke="rgba(0,0,0,0.22)" stroke-width="1"/>
<polyline points="215.0,184.0 224.0,184.9 232.6,187.5 240.6,191.8 247.5,197.5 253.2,204.4 257.5,212.4 260.1,221.0 261.0,230.0 260.1,239.0 257.5,247.6 253.2,255.6 247.5,262.5 240.6,268.2 232.6,272.5 224.0,275.1 215.0,276.0" fill="none" stroke="rgba(0,0,0,0.38)" stroke-width="1"/>
<polyline points="215.0,208.0 219.3,208.4 223.4,209.7 227.2,211.7 230.6,214.4 233.3,217.8 235.3,221.6 236.6,225.7 237.0,230.0 236.6,234.3 235.3,238.4 233.3,242.2 230.6,245.6 227.2,248.3 223.4,250.3 219.3,251.6 215.0,252.0" fill="none" stroke="rgba(0,0,0,0.38)" stroke-width="1"/>
<circle cx="150" cy="108" r="34" fill="none" stroke="rgba(0,0,0,0.38)" stroke-width="1.5"/>
<path d="M176,96 Q193,107 180,121 Q176,124 170,124" fill="none" stroke="rgba(0,0,0,0.38)" stroke-width="1.5"/>
<line x1="166" y1="139" x2="160" y2="167" stroke="rgba(0,0,0,0.38)" stroke-width="1.5"/>
<line x1="128" y1="140" x2="101" y2="164" stroke="rgba(0,0,0,0.38)" stroke-width="1.5"/>
<polygon points="160,167 180,190 205,205 222,228 215,255 205,270 198,290 192,310 180,345 165,365 100,360 95,340 85,300 82,250 88,205 96,178 101,164" fill="none" stroke="rgba(0,0,0,0.38)" stroke-width="1.5"/>
<line x1="95" y1="310" x2="230" y2="310" stroke="rgba(0,0,0,0.12)" stroke-width="1" stroke-dasharray="4 3"/>
<text x="240" y="300" font-family="monospace" font-size="8" fill="rgba(0,0,0,0.30)" text-anchor="start">DIAPHRAGM</text>
<line x1="60" y1="420" x2="740" y2="420" stroke="rgba(0,0,0,0.12)" stroke-width="1" stroke-dasharray="5 4"/>
<polyline points="60,458.0 68,457.1 76,454.4 84,450.1 92,444.4 100,437.5 108,429.8 116,421.6 124,413.3 132,405.3 140,398.1 148,391.9 156,387.0 164,383.7 172,382.1 180,382.4 188,384.4 196,388.1 204,393.3 212,399.8 220,407.3 228,415.3 236,423.6 244,431.7 252,439.3 260,445.9 268,451.3 276,455.3 284,457.5 292,457.9 300,456.6 308,453.5 316,448.8 324,442.8 332,435.6 340,427.7 348,419.5 356,411.3 364,403.5 372,396.4 380,390.5 388,386.0 396,383.1 404,382.0 412,382.7 420,385.2 428,389.3 436,394.8 444,401.6 452,409.3 460,417.4 468,425.7 476,433.7 484,441.1 492,447.4 500,452.5 508,456.0 516,457.8 524,457.8 532,456.0 540,452.5 548,447.4 556,441.1 564,433.7 572,425.7 580,417.4 588,409.3 596,401.6 604,394.8 612,389.3 620,385.2 628,382.7 636,382.0 644,383.1 652,386.0 660,390.5 668,396.4 676,403.5 684,411.3 692,419.5 700,427.7 708,435.6 716,442.8 724,448.8 732,453.5 740,456.6" fill="none" stroke="rgba(0,0,0,0.38)" stroke-width="1.5"/>
<circle cx="404" cy="382" r="3.5" fill="none" stroke="#dd260b" stroke-width="1.5"/>
<line x1="404" y1="368" x2="404" y2="378" stroke="#dd260b" stroke-width="1"/>
<text x="404" y="362" font-family="monospace" font-size="8" fill="rgba(0,0,0,0.30)" text-anchor="middle">INHALE</text>
<text x="60" y="460" font-family="monospace" font-size="8" fill="rgba(0,0,0,0.30)" text-anchor="start">RESPIRATION · 5.2 BR/MIN</text>
</svg>
