<svg xmlns="http://www.w3.org/2000/svg" viewBox="0 0 800 500" preserveAspectRatio="xMidYMid slice" role="presentation" aria-hidden="true">
<rect x="0" y="0" width="800" height="500" fill="#0a0a0a"/>
<line x1="0" y1="0" x2="0" y2="500" stroke="rgba(255,255,255,0.10)" stroke-width="1"/>
<line x1="40" y1="0" x2="40" y2="500" stroke="rgba(255,255,255,0.10)" stroke-width="1"/>
<line x1="80" y1="0" x2="80" y2="500" stroke="rgba(255,255,255,0.10)" stroke-width="1"/>
<line x1="120" y1="0" x2="120" y2="500" stroke="rgba(255,255,255,0.10)" stroke-width="1"/>
<line x1="160" y1="0" x2="160" y2="500" stroke="rgba(255,255,255,0.10)" stroke-width="1"/>
<line x1="200" y1="0" x2="200" y2="500" stroke="rgba(255,255,255,0.10)" stroke-width="1"/>
<line x1="240" y1="0" x2="240" y2="500" stroke="rgba(255,255,255,0.10)" stroke-width="1"/>
<line x1="280" y1="0" x2="280" y2="500" stroke="rgba(255,255,255,0.10)" stroke-width="1"/>
<line x1="320" y1="0" x2="320" y2="500" stroke="rgba(255,255,255,0.10)" stroke-width="1"/>
<line x1="360" y1="0" x2="360" y2="500" stroke="rgba(255,255,255,0.10)" stroke-width="1"/>
<line x1="400" y1="0" x2="400" y2="500" stroke="rgba(255,255,255,0.10)" stroke-width="1"/>
<line x1="440" y1="0" x2="440" y2="500" stroke="rgba(255,255,255,0.10)" stroke-width="1"/>
<line x1="480" y1="0" x2="480" y2="500" stroke="rgba(255,255,255,0.10)" stroke-width="1"/>
<line x1="520" y1="0" x2="520" y2="500" stroke="rgba(255,255,255,0.10)" stroke-width="1"/>
<line x1="560" y1="0" x2="560" y2="500" stroke="rgba(255,255,255,0.10)" stroke-width="1"/>
<line x1="600" y1="0" x2="600" y2="500" stroke="rgba(255,255,255,0.10)" stroke-width="1"/>
<line x1="640" y1="0" x2="640" y2="500" stroke="rgba(255,255,255,0.10)" stroke-width="1"/>
<line x1="680" y1="0" x2="680" y2="500" stroke="rgba(255,255,255,0.10)" stroke-width="1"/>
<line x1="720" y1="0" x2="720" y2="500" stroke="rgba(255,255,255,0.10)" stroke-width="1"/>
<line x1="760" y1="0" x2="760" y2="500" stroke="rgba(255,255,255,0.10)" stroke-width="1"/>
<line x1="800" y1="0" x2="800" y2="500" stroke="rgba(255,255,255,0.10)" stroke-width="1"/>
<line x1="0" y1="0" x2="800" y2="0" stroke="rgba(255,255,255,0.10)" stroke-width="1"/>
<line x1="0" y1="40" x2="800" y2="40" stroke="rgba(255,255,255,0.10)" stroke-width="1"/>
<line x1="0" y1="80" x2="800" y2="80" stroke="rgba(255,255,255,0.10)" stroke-width="1"/>
<line x1="0" y1="120" x2="800" y2="120" stroke="rgba(255,255,255,0.10)" stroke-width="1"/>
<line x1="0" y1="160" x2="800" y2="160" stroke="rgba(255,255,255,0.10)" stroke-width="1"/>
<line x1="0" y1="200" x2="800" y2="200" stroke="rgba(255,255,255,0.10)" stroke-width="1"/>
<line x1="0" y1="240" x2="800" y2="240" stroke="rgba(255,255,255,0.10)" stroke-width="1"/>
<line x1="0" y1="280" x2="800" y2="280" stroke="rgba(255,255,255,0.10)" stroke-width="1"/>
<line x1="0" y1="320" x2="800" y2="320" stroke="rgba(255,255,255,0.10)" stroke-width="1"/>
<line x1="0" y1="360" x2="800" y2="360" stroke="rgba(255,255,255,0.10)" stroke-width="1"/>
<line x1="0" y1="400" x2="800" y2="400" stroke="rgba(255,255,255,0.10)" stroke-width="1"/>
<line x1="0" y1="440" x2="800" y2="440" stroke="rgba(255,255,255,0.10)" stroke-width="1"/>
<line x1="0" y1="480" x2="800" y2="480" stroke="rgba(255,255,255,0.10)" stroke-width="1"/>
<rect x="60" y="50" width="680" height="46" fill="none" stroke="rgba(255,255,255,0.30)" stroke-width="1.5"/>
<circle cx="86" cy="73" r="10" fill="none" stroke="rgba(255,255,255,0.30)" stroke-width="1"/>
<line x1="120" y1="73" x2="170" y2="73" stroke="rgba(255,255,255,0.10)" stroke-width="1"/>
<line x1="190" y1="73" x2="240" y2="73" stroke="rgba(255,255,255,0.10)" stroke-width="1"/>
<line x1="260" y1="73" x2="310" y2="73" stroke="rgba(255,255,255,0.10)" stroke-width="1"/>
<rect x="640" y="60" width="80" height="26" rx="3" fill="none" stroke="#dd260b" stroke-width="1.5"/>
<line x1="655" y1="73" x2="705" y2="73" stroke="#dd260b" stroke-width="1" opacity="0.6"/>
<rect x="60" y="120" width="320" height="150" fill="none" stroke="rgba(255,255,255,0.30)" stroke-width="1"/>
<rect x="76" y="136" width="288" height="60" fill="none" stroke="rgba(255,255,255,0.10)" stroke-width="1"/>
<line x1="76" y1="216" x2="364" y2="216" stroke="rgba(255,255,255,0.10)" stroke-width="1"/>
<line x1="76" y1="232" x2="364" y2="232" stroke="rgba(255,255,255,0.10)" stroke-width="1"/>
<line x1="76" y1="248" x2="234.4" y2="248" stroke="rgba(255,255,255,0.10)" stroke-width="1"/>
<rect x="420" y="120" width="320" height="150" fill="none" stroke="rgba(255,255,255,0.30)" stroke-width="1"/>
<rect x="436" y="136" width="288" height="60" fill="none" stroke="rgba(255,255,255,0.10)" stroke-width="1"/>
<line x1="436" y1="216" x2="724" y2="216" stroke="rgba(255,255,255,0.10)" stroke-width="1"/>
<line x1="436" y1="232" x2="724" y2="232" stroke="rgba(255,255,255,0.10)" stroke-width="1"/>
<line x1="436" y1="248" x2="594.4" y2="248" stroke="rgba(255,255,255,0.10)" stroke-width="1"/>
<line x1="60" y1="300" x2="620" y2="300" stroke="rgba(255,255,255,0.10)" stroke-width="1"/>
<circle cx="44" cy="297" r="3" fill="none" stroke="rgba(255,255,255,0.30)" stroke-width="1"/>
<line x1="60" y1="320" x2="620" y2="320" stroke="rgba(255,255,255,0.10)" stroke-width="1"/>
<circle cx="44" cy="317" r="3" fill="none" stroke="rgba(255,255,255,0.30)" stroke-width="1"/>
<line x1="60" y1="340" x2="440" y2="340" stroke="rgba(255,255,255,0.10)" stroke-width="1"/>
<circle cx="44" cy="337" r="3" fill="none" stroke="rgba(255,255,255,0.30)" stroke-width="1"/>
<line x1="60" y1="360" x2="620" y2="360" stroke="rgba(255,255,255,0.10)" stroke-width="1"/>
<circle cx="44" cy="357" r="3" fill="none" stroke="rgba(255,255,255,0.30)" stroke-width="1"/>
<line x1="60" y1="380" x2="620" y2="380" stroke="rgba(255,255,255,0.10)" stroke-width="1"/>
<circle cx="44" cy="377" r="3" fill="none" stroke="rgba(255,255,255,0.30)" stroke-width="1"/>
<line x1="60" y1="400" x2="440" y2="400" stroke="rgba(255,255,255,0.10)" stroke-width="1"/>
<circle cx="44" cy="397" r="3" fill="none" stroke="rgba(255,255,255,0.30)" stroke-width="1"/>
<rect x="60" y="420" width="22" height="40" fill="none" stroke="rgba(255,255,255,0.30)" stroke-width="1"/>
<rect x="96" y="390" width="22" height="70" fill="none" stroke="rgba(255,255,255,0.30)" stroke-width="1"/>
<rect x="132" y="430" width="22" height="30" fill="none" stroke="rgba(255,255,255,0.30)" stroke-width="1"/>
<rect x="168" y="370" width="22" height="90" fill="none" stroke="rgba(255,255,255,0.30)" stroke-width="1"/>
<rect x="204" y="405" width="22" height="55" fill="none" stroke="rgba(255,255,255,0.30)" stroke-width="1"/>
<rect x="240" y="385" width="22" height="75" fill="none" stroke="rgba(255,255,255,0.30)" stroke-width="1"/>
<rect x="276" y="415" width="22" height="45" fill="none" stroke="rgba(255,255,255,0.30)" stroke-width="1"/>
<line x1="50" y1="460" x2="312" y2="460" stroke="rgba(255,255,255,0.30)" stroke-width="1"/>
<text x="400" y="470" font-family="monospace" font-size="8" fill="rgba(255,255,255,0.25)" text-anchor="middle">PROTOTYPE · WIREFRAME v0.3</text>
</svg>