<svg xmlns="http://www.w3.org/2000/svg" viewBox="0 0 800 500" preserveAspectRatio="xMidYMid slice" role="presentation" aria-hidden="true">
<rect x="0" y="0" width="800" height="500" fill="#0a0a0a"/>
<line x1="0" y1="0" x2="0" y2="500" stroke="rgba(255,255,255,0.10)" stroke-width="1"/>
<line x1="40" y1="0" x2="40" y2="500" stroke="rgba(255,255,255,0.10)" stroke-width="1"/>
<line x1="80" y1="0" x2="80" y2="500" stroke="rgba(255,255,255,0.10)" stroke-width="1"/>
<line x1="120" y1="0" x2="120" y2="500" stroke="rgba(255,255,255,0.10)" stroke-width="1"/>
<line x1="160" y1="0" x2="160" y2="500" stroke="rgba(255,255,255,0.10)" stroke-width="1"/>
<line x1="200" y1="0" x2="200" y2="500" stroke="rgba(255,255,255,0.10)" stroke-width="1"/>
<line x1="240" y1="0" x2="240" y2="500" stroke="rgba(255,255,255,0.10)" stroke-width="1"/>
<line x1="280" y1="0" x2="280" y2="500" stroke="rgba(255,255,255,0.10)" stroke-width="1"/>
<line x1="320" y1="0" x2="320" y2="500" stroke="rgba(255,255,255,0.10)" stroke-width="1"/>
<line x1="360" y1="0" x2="360" y2="500" stroke="rgba(255,255,255,0.10)" stroke-width="1"/>
<line x1="400" y1="0" x2="400" y2="500" stroke="rgba(255,255,255,0.10)" stroke-width="1"/>
<line x1="440" y1="0" x2="440" y2="500" stroke="rgba(255,255,255,0.10)" stroke-width="1"/>
<line x1="480" y1="0" x2="480" y2="500" stroke="rgba(255,255,255,0.10)" stroke-width="1"/>
<line x1="520" y1="0" x2="520" y2="500" stroke="rgba(255,255,255,0.10)" stroke-width="1"/>
<line x1="560" y1="0" x2="560" y2="500" stroke="rgba(255,255,255,0.10)" stroke-width="1"/>
<line x1="600" y1="0" x2="600" y2="500" stroke="rgba(255,255,255,0.10)" stroke-width="1"/>
<line x1="640" y1="0" x2="640" y2="500" stroke="rgba(255,255,255,0.10)" stroke-width="1"/>
<line x1="680" y1="0" x2="680" y2="500" stroke="rgba(255,255,255,0.10)" stroke-width="1"/>
<line x1="720" y1="0" x2="720" y2="500" stroke="rgba(255,255,255,0.10)" stroke-width="1"/>
<line x1="760" y1="0" x2="760" y2="500" stroke="rgba(255,255,255,0.10)" stroke-width="1"/>
<line x1="800" y1="0" x2="800" y2="500" stroke="rgba(255,255,255,0.10)" stroke-width="1"/>
<line x1="0" y1="0" x2="800" y2="0" stroke="rgba(255,255,255,0.10)" stroke-width="1"/>
<line x1="0" y1="40" x2="800" y2="40" stroke="rgba(255,255,255,0.10)" stroke-width="1"/>
<line x1="0" y1="80" x2="800" y2="80" stroke="rgba(255,255,255,0.10)" stroke-width="1"/>
<line x1="0" y1="120" x2="800" y2="120" stroke="rgba(255,255,255,0.10)" stroke-width="1"/>
<line x1="0" y1="160" x2="800" y2="160" stroke="rgba(255,255,255,0.10)" stroke-width="1"/>
<line x1="0" y1="200" x2="800" y2="200" stroke="rgba(255,255,255,0.10)" stroke-width="1"/>
<line x1="0" y1="240" x2="800" y2="240" stroke="rgba(255,255,255,0.10)" stroke-width="1"/>
<line x1="0" y1="280" x2="800" y2="280" stroke="rgba(255,255,255,0.10)" stroke-width="1"/>
<line x1="0" y1="320" x2="800" y2="320" stroke="rgba(255,255,255,0.10)" stroke-width="1"/>
<line x1="0" y1="360" x2="800" y2="360" stroke="rgba(255,255,255,0.10)" stroke-width="1"/>
<line x1="0" y1="400" x2="800" y2="400" stroke="rgba(255,255,255,0.10)" stroke-width="1"/>
<line x1="0" y1="440" x2="800" y2="440" stroke="rgba(255,255,255,0.10)" stroke-width="1"/>
<line x1="0" y1="480" x2="800" y2="480" stroke="rgba(255,255,255,0.10)" stroke-width="1"/>
<path d="M 205.6 434.4 A 190 190 0 1 1 474.4 434.4" fill="none" stroke="rgba(255,255,255,0.30)" stroke-width="1.5"/>
<path d="M 215.5 424.5 A 176 176 0 1 1 464.5 424.5" fill="none" stroke="rgba(255,255,255,0.10)" stroke-width="1"/>
<path d="M 527.1 333 A 190 190 0 0 1 474.4 434.4" fill="none" stroke="#dd260b" stroke-width="3"/>
<line x1="215.5" y1="424.5" x2="205.6" y2="434.4" stroke="rgba(255,255,255,0.30)" stroke-width="1"/>
<line x1="189.9" y1="392" x2="184" y2="395.6" stroke="rgba(255,255,255,0.30)" stroke-width="1"/>
<line x1="172.6" y1="354.4" x2="159.3" y2="358.7" stroke="rgba(255,255,255,0.30)" stroke-width="1"/>
<line x1="164.5" y1="313.8" x2="157.6" y2="314.4" stroke="rgba(255,255,255,0.30)" stroke-width="1"/>
<line x1="166.2" y1="272.5" x2="152.3" y2="270.3" stroke="rgba(255,255,255,0.30)" stroke-width="1"/>
<line x1="177.4" y1="232.6" x2="170.9" y2="230" stroke="rgba(255,255,255,0.30)" stroke-width="1"/>
<line x1="197.6" y1="196.5" x2="186.3" y2="188.3" stroke="rgba(255,255,255,0.30)" stroke-width="1"/>
<line x1="225.7" y1="166.2" x2="221.2" y2="160.8" stroke="rgba(255,255,255,0.30)" stroke-width="1"/>
<line x1="260.1" y1="143.2" x2="253.7" y2="130.7" stroke="rgba(255,255,255,0.30)" stroke-width="1"/>
<line x1="298.9" y1="128.9" x2="297.3" y2="122.1" stroke="rgba(255,255,255,0.30)" stroke-width="1"/>
<line x1="340" y1="124" x2="340" y2="110" stroke="rgba(255,255,255,0.30)" stroke-width="1"/>
<line x1="381.1" y1="128.9" x2="382.7" y2="122.1" stroke="rgba(255,255,255,0.30)" stroke-width="1"/>
<line x1="419.9" y1="143.2" x2="426.3" y2="130.7" stroke="rgba(255,255,255,0.30)" stroke-width="1"/>
<line x1="454.3" y1="166.2" x2="458.8" y2="160.8" stroke="rgba(255,255,255,0.30)" stroke-width="1"/>
<line x1="482.4" y1="196.5" x2="493.7" y2="188.3" stroke="rgba(255,255,255,0.30)" stroke-width="1"/>
<line x1="502.6" y1="232.6" x2="509.1" y2="230" stroke="rgba(255,255,255,0.30)" stroke-width="1"/>
<line x1="513.8" y1="272.5" x2="527.7" y2="270.3" stroke="rgba(255,255,255,0.30)" stroke-width="1"/>
<line x1="515.5" y1="313.8" x2="522.4" y2="314.4" stroke="rgba(255,255,255,0.30)" stroke-width="1"/>
<line x1="507.4" y1="354.4" x2="520.7" y2="358.7" stroke="#dd260b" stroke-width="1"/>
<line x1="490.1" y1="392" x2="496" y2="395.6" stroke="#dd260b" stroke-width="1"/>
<line x1="464.5" y1="424.5" x2="474.4" y2="434.4" stroke="#dd260b" stroke-width="1"/>
<line x1="323.5" y1="314.5" x2="460" y2="194.2" stroke="#dd260b" stroke-width="2"/>
<circle cx="340" cy="300" r="9" fill="none" stroke="rgba(255,255,255,0.30)" stroke-width="1.5"/>
<circle cx="340" cy="300" r="3" fill="#dd260b"/>
<circle cx="630" cy="380" r="78" fill="none" stroke="rgba(255,255,255,0.30)" stroke-width="1"/>
<line x1="700" y1="380" x2="708" y2="380" stroke="rgba(255,255,255,0.30)" stroke-width="1"/>
<line x1="690.6" y1="415" x2="697.5" y2="419" stroke="rgba(255,255,255,0.30)" stroke-width="1"/>
<line x1="665" y1="440.6" x2="669" y2="447.5" stroke="rgba(255,255,255,0.30)" stroke-width="1"/>
<line x1="630" y1="450" x2="630" y2="458" stroke="rgba(255,255,255,0.30)" stroke-width="1"/>
<line x1="595" y1="440.6" x2="591" y2="447.5" stroke="rgba(255,255,255,0.30)" stroke-width="1"/>
<line x1="569.4" y1="415" x2="562.5" y2="419" stroke="rgba(255,255,255,0.30)" stroke-width="1"/>
<line x1="560" y1="380" x2="552" y2="380" stroke="rgba(255,255,255,0.30)" stroke-width="1"/>
<line x1="569.4" y1="345" x2="562.5" y2="341" stroke="rgba(255,255,255,0.30)" stroke-width="1"/>
<line x1="595" y1="319.4" x2="591" y2="312.5" stroke="rgba(255,255,255,0.30)" stroke-width="1"/>
<line x1="630" y1="310" x2="630" y2="302" stroke="rgba(255,255,255,0.30)" stroke-width="1"/>
<line x1="665" y1="319.4" x2="669" y2="312.5" stroke="rgba(255,255,255,0.30)" stroke-width="1"/>
<line x1="690.6" y1="345" x2="697.5" y2="341" stroke="rgba(255,255,255,0.30)" stroke-width="1"/>
<line x1="630" y1="380" x2="661" y2="326.3" stroke="rgba(255,255,255,0.40)" stroke-width="1.5"/>
<circle cx="630" cy="380" r="3" fill="none" stroke="rgba(255,255,255,0.30)" stroke-width="1"/>
<text x="340" y="470" font-family="monospace" font-size="8" fill="rgba(255,255,255,0.25)" text-anchor="middle">KM/H</text>
</svg>